<mxfile host="app.diagrams.net" modified="2023-08-15T15:44:36.319Z" agent="Mozilla/5.0 (Macintosh; Intel Mac OS X 10_15_7) AppleWebKit/537.36 (KHTML, like Gecko) Chrome/115.0.0.0 Safari/537.36" version="21.6.8" etag="tE6kTjzR3AdJBbw16zax" type="github">
  <diagram name="第 1 页" id="hoijP58vLhHGM3EhIxzM">
    <mxGraphModel>
      <root>
        <mxCell id="0" />
        <mxCell id="1" parent="0" />
      </root>
    </mxGraphModel>
  </diagram>
</mxfile>
